<svg height="48" width="48" xml:space="preserve" xmlns="http://www.w3.org/2000/svg"><path d="M35.917 24c-6.627 0-12 5.373-12 12s5.373 12 12 12 12-5.373 12-12-5.373-12-12-12zm0 21c-4.971 0-9-4.029-9-9s4.029-9 9-9 9 4.029 9 9-4.029 9-9 9zM6.25 20h5v5h-5zM13.889 20h5v5h-5zM21.319 20h5v5h-5zM6.25 27.5h5v5h-5zM13.889 27.5h5v5h-5z"/><path d="M3.333 36.667V16.583h33.333v3.455c1.147.053 2.261.225 3.333.508V3.333h-8.333V0h-3.334v3.333H11.667V0H8.333v3.333H0V40h20.441a16.04 16.04 0 0 1-.491-3.333H3.333zm0-30h5V10h3.333V6.667h16.667V10h3.334V6.667h5v6.584H3.333V6.667zM38.468 36.677l-2.501-.38s-.376-2.533-.387-2.522l3.243-3.242a5.771 5.771 0 0 0-2.388-.519 5.8 5.8 0 0 0-5.799 5.8c0 .852.188 1.658.518 2.387l-.986.986a5.622 5.622 0 0 0 2.92 2.871l.962-.962a5.796 5.796 0 0 0 2.386.518 5.8 5.8 0 0 0 5.8-5.8c0-.853-.188-1.657-.518-2.388l-3.25 3.251z"/></svg>