<svg id="Layer_1" style="enable-background:new 0 0 30 30" version="1.1" viewBox="0 0 30 30" xml:space="preserve" xmlns="http://www.w3.org/2000/svg"><style>.st0{fill:#fd6a7e}.st1{fill:#17b978}.st2{fill:#8797ee}.st3{fill:#41a6f9}.st4{fill:#37e0ff}.st5{fill:#2fd9b9}.st6{fill:#f498bd}.st7{fill:#ffdf1d}</style><path d="M6 9.3 3.9 5.8l1.4-1.4 3.5 2.1v1.4l3.6 3.6v.3L11.1 13 7.4 9.3H6zm15 8.5h-.8c-.7 0-1.3-.1-1.9-.2L16.2 20l4.7 5.3c1.1 1.2 3 1.3 4.1.1 1.2-1.2 1.1-3-.1-4.1L21 17.8zm3.4-3.8c1.6-1.6 2.1-4 1.5-6.1-.1-.4-.6-.5-.8-.2l-3.5 3.5-2.8-2.8 3.5-3.5c.3-.3.2-.7-.2-.8-2.1-.7-4.5-.2-6.1 1.5-1.8 1.8-2.2 4.6-1.2 6.8l-10 8.9c-1.2 1.1-1.3 3-.1 4.1 1.2 1.2 3 1.1 4.1-.1l8.9-10c2.2 1 4.9.6 6.7-1.3z" style="fill:#c6c9cc"/></svg>