<svg id="Icons" style="enable-background:new 0 0 32 32" version="1.1" viewBox="0 0 32 32" xml:space="preserve" xmlns="http://www.w3.org/2000/svg"><style>.st0{fill:none;stroke:#000;stroke-width:2;stroke-linecap:round;stroke-linejoin:round;stroke-miterlimit:10}</style><path class="st0" d="M29 12.6V10c0-.6-.4-1-1-1h-6.3c-.3.6-1 1-1.7 1s-1.4-.4-1.7-1H4c-.6 0-1 .4-1 1v2.6c1.2.7 2 2 2 3.4s-.8 2.8-2 3.4V22c0 .6.4 1 1 1h14.3c.3-.6 1-1 1.7-1s1.4.4 1.7 1H28c.6 0 1-.4 1-1v-2.6c-1.2-.7-2-2-2-3.4s.8-2.8 2-3.4zM20 13v1M20 19v-1M11 12v1M11 19v1"/><path class="st0" d="M12 13h-1.5c-.8 0-1.5.7-1.5 1.5v0c0 .8.7 1.5 1.5 1.5h1c.8 0 1.5.7 1.5 1.5v0c0 .8-.7 1.5-1.5 1.5H10"/><path style="fill:none" d="M-288-360h536v680h-536z"/></svg>