<svg id="Layer_1" style="enable-background:new 0 0 128 128" version="1.1" viewBox="0 0 128 128" xml:space="preserve" xmlns="http://www.w3.org/2000/svg"><style>.st14{fill:#444b54}</style><path d="M55 71 4 99v15h14c0 5.5 4.5 10 10 10s10-4.5 10-10h52c0 5.5 4.5 10 10 10s10-4.5 10-10h11l3-26-69-17z" style="fill:#fff"/><path class="st14" d="M121 117h-.3c-1.6-.2-2.8-1.7-2.6-3.3l2.7-23.4-65.4-16.1L7 100.8V114c0 1.7-1.3 3-3 3s-3-1.3-3-3V99c0-1.1.6-2.1 1.6-2.6l51-28c.7-.4 1.4-.5 2.2-.3l69 17c1.5.4 2.4 1.8 2.3 3.3l-3 26c-.3 1.5-1.6 2.6-3.1 2.6z"/><path class="st14" d="M77 111H40.6c-1.4-5.7-6.5-10-12.6-10-7.2 0-13 5.8-13 13s5.8 13 13 13c6.1 0 11.3-4.3 12.6-10H77c1.7 0 3-1.3 3-3s-1.3-3-3-3zm-49 10c-3.9 0-7-3.1-7-7s3.1-7 7-7 7 3.1 7 7-3.1 7-7 7zM100 127c-7.2 0-13-5.8-13-13s5.8-13 13-13 13 5.8 13 13-5.8 13-13 13zm0-20c-3.9 0-7 3.1-7 7s3.1 7 7 7 7-3.1 7-7-3.1-7-7-7z"/></svg>