<?xml version="1.0" standalone="no"?>
<!DOCTYPE svg PUBLIC "-//W3C//DTD SVG 20010904//EN"
 "http://www.w3.org/TR/2001/REC-SVG-20010904/DTD/svg10.dtd">
<svg version="1.0" xmlns="http://www.w3.org/2000/svg"
 width="120.000000pt" height="120.000000pt" viewBox="0 0 120.000000 120.000000"
 preserveAspectRatio="xMidYMid meet">

<g transform="translate(0.000000,120.000000) scale(0.100000,-0.100000)"
fill="#000000" stroke="none">
<path d="M366 1150 c-38 -16 -73 -33 -78 -38 -5 -5 -3 -31 3 -58 l12 -50 -53
-53 c-55 -55 -65 -58 -143 -35 -14 4 -24 -8 -46 -58 -16 -35 -32 -78 -36 -95
-6 -30 -4 -34 37 -59 l43 -26 0 -77 0 -77 -43 -27 c-49 -31 -49 -31 -11 -130
31 -83 36 -87 96 -75 l52 10 51 -51 c54 -54 57 -65 34 -142 -3 -12 14 -24 63
-47 113 -51 118 -51 150 1 l28 44 76 0 76 0 27 -44 c31 -52 36 -52 149 -1 62
29 68 34 62 56 -20 79 -20 78 35 133 48 48 54 51 90 45 21 -3 45 -8 52 -11 16
-6 73 105 83 160 5 27 1 33 -38 56 l-44 26 0 75 0 75 44 27 c24 15 43 32 43
36 0 16 -51 145 -64 163 -12 15 -19 16 -63 6 l-49 -12 -53 53 c-50 50 -53 55
-47 91 3 20 9 44 12 53 5 12 -10 23 -62 47 -37 17 -81 33 -98 35 -28 4 -34 0
-57 -38 l-25 -43 -75 1 -74 1 -28 41 c-16 23 -36 42 -45 42 -9 0 -48 -14 -86
-30z m399 -178 c171 -81 269 -262 236 -439 -32 -175 -161 -302 -341 -335 -170
-32 -353 70 -433 240 -28 60 -31 77 -32 163 0 90 2 99 38 171 78 158 219 243
389 234 60 -3 93 -11 143 -34z"/>
<path d="M783 843 c-13 -8 -23 -22 -23 -30 0 -8 -23 -38 -50 -67 -40 -43 -48
-55 -37 -64 10 -9 23 -1 58 34 24 25 54 50 66 54 12 5 29 21 39 35 13 20 14
28 4 40 -16 19 -29 18 -57 -2z"/>
<path d="M443 813 c33 -35 33 -43 4 -71 -30 -28 -35 -28 -70 6 l-30 27 7 -34
c8 -45 31 -69 71 -77 44 -8 240 -205 250 -250 8 -40 32 -62 76 -70 l34 -7 -33
35 -32 34 28 27 c35 33 39 33 75 0 l30 -28 -7 30 c-10 40 -42 73 -80 80 -45
10 -234 198 -242 241 -7 39 -38 70 -79 80 l-30 7 28 -30z"/>
<path d="M637 658 c34 -34 66 -59 70 -54 9 9 -100 116 -119 116 -7 0 15 -28
49 -62z"/>
<path d="M418 532 c-81 -82 -87 -99 -52 -141 42 -51 73 -44 155 36 47 45 66
70 59 77 -7 7 -20 0 -40 -19 -41 -39 -62 -21 -26 23 14 16 26 33 26 36 0 15
-29 4 -50 -19 -16 -17 -27 -22 -34 -15 -7 7 0 20 19 40 19 20 25 34 19 40 -6
6 -33 -14 -76 -58z"/>
</g>
</svg>
